# xmcd
#
# Track frame offsets: 
#        150
#        9505
#        17549
#        25981
#        34941
#        45313
#        56698
#        65040
#        75745
#        87237
#        102445
#        111705
#
# Disc length: 1604 seconds
#
# Revision: 1
# Processed by: cddbd v1.5.2PL0 Copyright (c) Steve Scherf et al.
# Submitted via: ExactAudioCopy v0.95b3
#
DISCID=9906420c
DTITLE=Roger Miller - King of the Road
DYEAR=2005
DGENRE=Country
TTITLE0=Chug-a-Lug
TTITLE1=Dang Me
TTITLE2=Do-Wacka-Do
TTITLE3=England Swings
TTITLE4=Engine Engine #9
TTITLE5=Husbands and Wives
TTITLE6=In the Summertime
TTITLE7=Kansas City Star
TTITLE8=King of the Road
TTITLE9=Me and Bobby McGee
TTITLE10=My Uncle Used to Love Me but She Died
TTITLE11=You Can't Rollerskate in a Buffalo Herd
EXTD=YEAR: 2005
EXTT0=
EXTT1=
EXTT2=
EXTT3=
EXTT4=
EXTT5=
EXTT6=
EXTT7=
EXTT8=
EXTT9=
EXTT10=
EXTT11=
PLAYORDER=
